{"title":"The.Purge.2013.WEBRip XViD juggs","uid":8736705,"size":748643189,"categoryP":"video","categoryS":"movies","magnet":"?xt=urn:btih:228b9b6c7d1ee75af5c12a478f7c77426203ca6b&amp;dn=The.Purge.2013.WEBRip+XViD+juggs&amp;tr=udp%3A%2F%2Ftracker.openbittorrent.com%3A80&amp;tr=udp%3A%2F%2Fopen.demonii.com%3A1337&amp;tr=udp%3A%2F%2Ftracker.coppersurfer.tk%3A6969&amp;tr=udp%3A%2F%2Fexodus.desync.com%3A6969","seeders":43,"leechers":9,"uploader":"juggs99","files":3,"time":1374695106,"description":"Source : HDC(Thanks)\n &lt;a href=&quot;\nhttp://www.imdb.com/title/tt2184339/&quot; rel=&quot;nofollow&quot; target=&quot;_NEW&quot;&gt;\nhttp://www.imdb.com/title/tt2184339/&lt;/a&gt;\n\nFormat                                   : AVI\nFormat/Info                              : Audio Video Interleave\nFile size                                : 698 MiB\nDuration                                 : 1h 25mn\nOverall bit rate                         : 1 145 Kbps\nWriting library                          : VirtualDub build 32842/release\n\nVideo\nID                                       : 0\nFormat                                   : MPEG-4 Visual\nFormat profile                           : Advanced Simple@L5\nFormat settings, BVOP                    : 2\nFormat settings, QPel                    : No\nFormat settings, GMC                     : No warppoints\nFormat settings, Matrix                  : Default (H.263)\nMuxing mode                              : Packed bitstream\nCodec ID                                 : XVID\nCodec ID/Hint                            : XviD\nDuration                                 : 1h 25mn\nBit rate                                 : 1 007 Kbps\nWidth                                    : 640 pixels\nHeight                                   : 272 pixels\nDisplay aspect ratio                     : 2.35:1\nFrame rate                               : 23.976 fps\nColor space                              : YUV\nChroma subsampling                       : 4:2:0\nBit depth                                : 8 bits\nScan type                                : Progressive\nCompression mode                         : Lossy\nBits/(Pixel*Frame)                       : 0.241\nStream size                              : 614 MiB (88%)\nWriting library                          : XviD 64\n\nAudio\nID                                       : 1\nFormat                                   : MPEG Audio\nFormat version                           : Version 1\nFormat profile                           : Layer 3\nCodec ID                                 : 55\nCodec ID/Hint                            : MP3\nDuration                                 : 1h 25mn\nBit rate mode                            : Constant\nBit rate                                 : 128 Kbps\nChannel(s)                               : 2 channels\nSampling rate                            : 44.1 KHz\nCompression mode                         : Lossy\nStream size                              : 78.0 MiB (11%)\nAlignment                                : Split accross interleaves\nInterleave, duration                     : 42 ms (1.00 video frame)\nInterleave, preload duration             : 500 ms\nWriting library                          : LAME3.99r\n\n &lt;a href=&quot;\nhttp://www.shotpix.com/photos/20130724137468578632123.png&quot; rel=&quot;nofollow&quot; target=&quot;_NEW&quot;&gt;\nhttp://www.shotpix.com/photos/20130724137468578632123.png&lt;/a&gt; &lt;a href=&quot;\nhttp://www.shotpix.com/photos/20130724137468579827004.png&quot; rel=&quot;nofollow&quot; target=&quot;_NEW&quot;&gt;\nhttp://www.shotpix.com/photos/20130724137468579827004.png&lt;/a&gt; &lt;a href=&quot;\nhttp://www.shotpix.com/photos/20130724137468579210746.png&quot; rel=&quot;nofollow&quot; target=&quot;_NEW&quot;&gt;\nhttp://www.shotpix.com/photos/20130724137468579210746.png&lt;/a&gt; &lt;a href=&quot;\nhttp://www.shotpix.com/photos/20130724137468579382761.png&quot; rel=&quot;nofollow&quot; target=&quot;_NEW&quot;&gt;\nhttp://www.shotpix.com/photos/20130724137468579382761.png&lt;/a&gt;","torrent":{"xt":"urn:btih:228b9b6c7d1ee75af5c12a478f7c77426203ca6b","amp;dn":"The.Purge.2013.WEBRip+XViD+juggs","amp;tr":["udp%3A%2F%2Ftracker.openbittorrent.com%3A80","udp%3A%2F%2Fopen.demonii.com%3A1337","udp%3A%2F%2Ftracker.coppersurfer.tk%3A6969","udp%3A%2F%2Fexodus.desync.com%3A6969"],"infoHash":"228b9b6c7d1ee75af5c12a478f7c77426203ca6b","infoHashBuffer":{"type":"Buffer","data":[34,139,155,108,125,30,231,90,245,193,42,71,143,124,119,66,98,3,202,107]},"announce":[],"urlList":[]}}